<svg width="46" height="46" viewBox="0 0 46 46" fill="none" xmlns="http://www.w3.org/2000/svg">
<rect x="4.5" y="4.5" width="37" height="37" rx="18.5" stroke="white" stroke-width="3"/>
<path d="M15.9524 13H29.0476V28.4762L20.7143 36.8095L19.2262 35.3214C19.0873 35.1825 18.9732 34.994 18.8839 34.756C18.7946 34.5179 18.75 34.2897 18.75 34.0714V33.6548L20.0595 28.4762H12.381C11.746 28.4762 11.1905 28.2381 10.7143 27.7619C10.2381 27.2857 10 26.7302 10 26.0952V23.7143C10 23.5754 10.0198 23.4266 10.0595 23.2679C10.0992 23.1091 10.1389 22.9603 10.1786 22.8214L13.75 14.4286C13.9286 14.0317 14.2262 13.6944 14.6429 13.4167C15.0595 13.1389 15.496 13 15.9524 13ZM26.6667 15.381H15.9524L12.381 23.7143V26.0952H23.0952L21.4881 32.6429L26.6667 27.4643V15.381ZM29.0476 28.4762V26.0952H32.619V15.381H29.0476V13H35V28.4762H29.0476Z" fill="white"/>
</svg>
