<svg width="46" height="46" viewBox="0 0 46 46" fill="none" xmlns="http://www.w3.org/2000/svg">
<rect x="4.5" y="4.5" width="37" height="37" rx="18.5" stroke="white" stroke-width="3"/>
<path d="M30.0476 32.8095H16.9524V17.3333L25.2857 9L26.7738 10.4881C26.9127 10.627 27.0268 10.8155 27.1161 11.0536C27.2054 11.2917 27.25 11.5198 27.25 11.7381V12.1548L25.9405 17.3333H33.619C34.254 17.3333 34.8095 17.5714 35.2857 18.0476C35.7619 18.5238 36 19.0794 36 19.7143V22.0952C36 22.2341 35.9802 22.3829 35.9405 22.5417C35.9008 22.7004 35.8611 22.8492 35.8214 22.9881L32.25 31.381C32.0714 31.7778 31.7738 32.1151 31.3571 32.3929C30.9405 32.6706 30.504 32.8095 30.0476 32.8095ZM19.3333 30.4286H30.0476L33.619 22.0952V19.7143H22.9048L24.5119 13.1667L19.3333 18.3452V30.4286ZM16.9524 17.3333V19.7143H13.381V30.4286H16.9524V32.8095H11V17.3333H16.9524Z" fill="white"/>
</svg>
